<?xml version="1.0" standalone="no"?>
<!DOCTYPE svg PUBLIC "-//W3C//DTD SVG 20010904//EN"
 "http://www.w3.org/TR/2001/REC-SVG-20010904/DTD/svg10.dtd">
<svg version="1.0" xmlns="http://www.w3.org/2000/svg"
 width="512.000000pt" height="512.000000pt" viewBox="0 0 512.000000 512.000000"
 preserveAspectRatio="xMidYMid meet">

<g transform="translate(0.000000,512.000000) scale(0.100000,-0.100000)"
fill="#000000" stroke="none">
<path d="M373 4255 c-17 -7 -40 -26 -50 -41 -17 -27 -18 -93 -21 -1446 l-2
-1418 -129 0 c-109 0 -132 -3 -151 -18 -22 -18 -22 -19 -6 -81 48 -186 203
-332 406 -382 82 -21 4198 -21 4280 0 203 50 358 196 406 382 16 62 16 63 -6
81 -19 15 -42 18 -151 18 l-129 0 -2 1418 c-3 1354 -4 1419 -21 1446 -40 60
108 56 -2239 56 -1809 -1 -2158 -3 -2185 -15z m4237 -1445 l0 -1260 -2050 0
-2050 0 0 1260 0 1260 2050 0 2050 0 0 -1260z m-1510 -1483 c0 -32 -27 -67
-66 -83 -49 -21 -899 -21 -948 0 -39 16 -66 51 -66 83 l0 23 540 0 540 0 0
-23z"/>
</g>
</svg>
